<?xml version="1.0" encoding="UTF-8"?>
<svg width="127px" height="30px" viewBox="0 0 127 30" version="1.1" xmlns="http://www.w3.org/2000/svg" xmlns:xlink="http://www.w3.org/1999/xlink">
    <!-- Generator: Sketch 42 (36781) - http://www.bohemiancoding.com/sketch -->
    <title>logo</title>
    <desc>Created with Sketch.</desc>
    <defs>
        <linearGradient x1="83.0688477%" y1="9.36810662%" x2="0%" y2="100%" id="linearGradient-1">
            <stop stop-color="#F8A4D8" offset="0%"></stop>
            <stop stop-color="#6C63FF" offset="100%"></stop>
        </linearGradient>
    </defs>
    <g id="Landing-page-" stroke="none" stroke-width="1" fill="none" fill-rule="evenodd">
        <g id="csspeeper_landing_v2" transform="translate(-250.000000, -72.000000)">
            <g id="logo" transform="translate(250.000000, 72.000000)">
                <path d="M48.3575172,19.4466667 C48.9857503,19.4466667 49.5264345,19.3403714 49.9795862,19.1277778 C50.4327379,18.9151841 50.9064803,18.5755579 51.4008276,18.1088889 L52.5748966,19.3222222 C51.4317184,20.5977842 50.0439622,21.2355556 48.4115862,21.2355556 C46.7792102,21.2355556 45.4249249,20.706672 44.3486897,19.6488889 C43.2724544,18.5911058 42.7343448,17.2533414 42.7343448,15.6355556 C42.7343448,14.0177697 43.2827531,12.669635 44.3795862,11.5911111 C45.4764193,10.5125872 46.8616008,9.97333333 48.5351724,9.97333333 C50.208744,9.97333333 51.606799,10.5955493 52.7293793,11.84 L51.5707586,13.1155556 C51.0558135,12.6177753 50.5691977,12.2703714 50.1108966,12.0733333 C49.6525954,11.8762953 49.1144858,11.7777778 48.4965517,11.7777778 C47.4048681,11.7777778 46.4882796,12.1329594 45.7467586,12.8433333 C45.0052377,13.5537073 44.6344828,14.4611056 44.6344828,15.5655556 C44.6344828,16.6700055 45.002663,17.5929593 45.7390345,18.3344444 C46.475406,19.0759296 47.3482248,19.4466667 48.3575172,19.4466667 Z M56.1048276,11.9955556 C55.7649638,12.2133344 55.5950345,12.5425904 55.5950345,12.9833333 C55.5950345,13.4240763 55.7649638,13.7611099 56.1048276,13.9944444 C56.4446914,14.2277789 57.1681784,14.4792579 58.2753104,14.7488889 C59.3824423,15.0185199 60.2166409,15.3970346 60.7779311,15.8844444 C61.3392212,16.3718543 61.6198621,17.0899953 61.6198621,18.0388889 C61.6198621,18.9877825 61.2645553,19.7577748 60.5539311,20.3488889 C59.8433068,20.940003 58.9112702,21.2355556 57.7577931,21.2355556 C56.0687732,21.2355556 54.5703054,20.6496355 53.2623449,19.4777778 L54.4055173,18.0933333 C55.4972009,19.0474122 56.6300631,19.5244444 57.804138,19.5244444 C58.3911754,19.5244444 58.8571937,19.3974087 59.2022069,19.1433333 C59.5472201,18.889258 59.7197242,18.5522243 59.7197242,18.1322222 C59.7197242,17.7122201 59.5575189,17.3855567 59.2331035,17.1522222 C58.9086881,16.9188877 58.349981,16.7062973 57.5569655,16.5144444 C56.7639501,16.3225916 56.1614734,16.1462971 55.7495173,15.9855556 C55.3375612,15.824814 54.9719556,15.6148161 54.6526897,15.3555556 C54.0141578,14.8681457 53.6948966,14.1214865 53.6948966,13.1155556 C53.6948966,12.1096246 54.0579274,11.3344472 54.784,10.79 C55.5100726,10.2455528 56.4086383,9.97333333 57.4797242,9.97333333 C58.1697506,9.97333333 58.8546173,10.0874063 59.5343449,10.3155556 C60.2140724,10.5437048 60.801101,10.8651831 61.2954483,11.28 L60.3222069,12.6644444 C60.002941,12.3740726 59.5703936,12.1355565 59.0245518,11.9488889 C58.4787099,11.7622213 57.9406004,11.6688889 57.4102069,11.6688889 C56.8798135,11.6688889 56.4446914,11.7777767 56.1048276,11.9955556 Z M65.2579311,11.9955556 C64.9180673,12.2133344 64.748138,12.5425904 64.748138,12.9833333 C64.748138,13.4240763 64.9180673,13.7611099 65.2579311,13.9944444 C65.5977949,14.2277789 66.3212819,14.4792579 67.4284138,14.7488889 C68.5355458,15.0185199 69.3697444,15.3970346 69.9310345,15.8844444 C70.4923247,16.3718543 70.7729656,17.0899953 70.7729656,18.0388889 C70.7729656,18.9877825 70.4176588,19.7577748 69.7070345,20.3488889 C68.9964103,20.940003 68.0643736,21.2355556 66.9108966,21.2355556 C65.2218767,21.2355556 63.7234089,20.6496355 62.4154483,19.4777778 L63.5586207,18.0933333 C64.6503044,19.0474122 65.7831666,19.5244444 66.9572414,19.5244444 C67.5442788,19.5244444 68.0102972,19.3974087 68.3553104,19.1433333 C68.7003236,18.889258 68.8728276,18.5522243 68.8728276,18.1322222 C68.8728276,17.7122201 68.7106224,17.3855567 68.3862069,17.1522222 C68.0617915,16.9188877 67.5030845,16.7062973 66.710069,16.5144444 C65.9170536,16.3225916 65.3145768,16.1462971 64.9026207,15.9855556 C64.4906647,15.824814 64.1250591,15.6148161 63.8057932,15.3555556 C63.1672612,14.8681457 62.8480001,14.1214865 62.8480001,13.1155556 C62.8480001,12.1096246 63.2110309,11.3344472 63.9371035,10.79 C64.6631761,10.2455528 65.5617418,9.97333333 66.6328276,9.97333333 C67.3228541,9.97333333 68.0077208,10.0874063 68.6874483,10.3155556 C69.3671759,10.5437048 69.9542045,10.8651831 70.4485518,11.28 L69.4753104,12.6644444 C69.1560444,12.3740726 68.723497,12.1355565 68.1776552,11.9488889 C67.6318134,11.7622213 67.0937039,11.6688889 66.5633104,11.6688889 C66.0329169,11.6688889 65.5977949,11.7777767 65.2579311,11.9955556 Z M83.394207,11.1866667 C84.1460269,11.8192624 84.5219311,12.7940675 84.5219311,14.1111111 C84.5219311,15.4281547 84.1383028,16.3925895 83.3710346,17.0044444 C82.6037664,17.6162994 81.4271345,17.9222222 79.8411036,17.9222222 L77.9255173,17.9222222 L77.9255173,21.1111111 L76.1026208,21.1111111 L76.1026208,10.2377778 L79.810207,10.2377778 C81.4477324,10.2377778 82.6423872,10.5540709 83.394207,11.1866667 Z M82.104276,15.6744444 C82.469887,15.2855536 82.6526898,14.7151889 82.6526898,13.9633333 C82.6526898,13.2114777 82.4209679,12.6800016 81.9575173,12.3688889 C81.4940668,12.0577762 80.768005,11.9022222 79.7793105,11.9022222 L77.9255173,11.9022222 L77.9255173,16.2577778 L80.0419311,16.2577778 C81.0512235,16.2577778 81.7386649,16.0633353 82.104276,15.6744444 Z M93.4896553,17.7355556 L87.0477243,17.7355556 C87.0889199,18.33704 87.3618367,18.82185 87.8664829,19.19 C88.3711291,19.55815 88.947859,19.7422222 89.5966898,19.7422222 C90.62658,19.7422222 91.4092848,19.4155588 91.9448277,18.7622222 L92.9335174,19.8511111 C92.0478118,20.7740787 90.8943521,21.2355556 89.4731036,21.2355556 C88.3196265,21.2355556 87.3386708,20.8492631 86.530207,20.0766667 C85.7217432,19.3040702 85.3175174,18.2670435 85.3175174,16.9655556 C85.3175174,15.6640676 85.7294673,14.6296335 86.5533794,13.8622222 C87.3772916,13.094811 88.3479486,12.7111111 89.4653794,12.7111111 C90.5828103,12.7111111 91.5328698,13.0507373 92.3155863,13.73 C93.0983029,14.4092627 93.4896553,15.3451792 93.4896553,16.5377778 L93.4896553,17.7355556 Z M87.0477243,16.3666667 L91.7594484,16.3666667 C91.7594484,15.6718484 91.5431747,15.1377796 91.1106208,14.7644444 C90.6780669,14.3911092 90.1451067,14.2044444 89.5117243,14.2044444 C88.8783418,14.2044444 88.309336,14.3988869 87.8046898,14.7877778 C87.3000436,15.1766686 87.0477243,15.7029596 87.0477243,16.3666667 Z M102.457379,17.7355556 L96.0154484,17.7355556 C96.056644,18.33704 96.3295609,18.82185 96.8342071,19.19 C97.3388533,19.55815 97.9155831,19.7422222 98.564414,19.7422222 C99.5943042,19.7422222 100.377009,19.4155588 100.912552,18.7622222 L101.901242,19.8511111 C101.015536,20.7740787 99.8620762,21.2355556 98.4408277,21.2355556 C97.2873507,21.2355556 96.306395,20.8492631 95.4979312,20.0766667 C94.6894674,19.3040702 94.2852415,18.2670435 94.2852415,16.9655556 C94.2852415,15.6640676 94.6971914,14.6296335 95.5211036,13.8622222 C96.3450158,13.094811 97.3156727,12.7111111 98.4331036,12.7111111 C99.5505345,12.7111111 100.500594,13.0507373 101.283311,13.73 C102.066027,14.4092627 102.457379,15.3451792 102.457379,16.5377778 L102.457379,17.7355556 Z M96.0154484,16.3666667 L100.727173,16.3666667 C100.727173,15.6718484 100.510899,15.1377796 100.078345,14.7644444 C99.6457911,14.3911092 99.1128309,14.2044444 98.4794484,14.2044444 C97.846066,14.2044444 97.2770602,14.3988869 96.772414,14.7877778 C96.2677677,15.1766686 96.0154484,15.7029596 96.0154484,16.3666667 Z M111.008,13.8622222 C111.790717,14.6296335 112.182069,15.6511047 112.182069,16.9266667 C112.182069,18.2022286 111.793291,19.2392553 111.015724,20.0377778 C110.238157,20.8363003 109.331867,21.2355556 108.296828,21.2355556 C107.261788,21.2355556 106.332326,20.7792638 105.508414,19.8666667 L105.508414,24.1288889 L103.778207,24.1288889 L103.778207,12.8355556 L105.508414,12.8355556 L105.508414,14.2822222 C106.188142,13.2348096 107.078983,12.7111111 108.180966,12.7111111 C109.282948,12.7111111 110.225284,13.094811 111.008,13.8622222 Z M106.188138,18.9255556 C106.661888,19.428521 107.238617,19.68 107.918345,19.68 C108.598073,19.68 109.190251,19.4311136 109.694897,18.9333333 C110.199543,18.4355531 110.451862,17.790004 110.451862,16.9966667 C110.451862,16.2033294 110.204692,15.5448174 109.710345,15.0211111 C109.215998,14.4974048 108.62382,14.2355556 107.933793,14.2355556 C107.243767,14.2355556 106.661888,14.4974048 106.188138,15.0211111 C105.714389,15.5448174 105.477517,16.2007368 105.477517,16.9888889 C105.477517,17.777041 105.714389,18.4225901 106.188138,18.9255556 Z M121.227035,17.7355556 L114.785104,17.7355556 C114.826299,18.33704 115.099216,18.82185 115.603862,19.19 C116.108508,19.55815 116.685238,19.7422222 117.334069,19.7422222 C118.363959,19.7422222 119.146664,19.4155588 119.682207,18.7622222 L120.670897,19.8511111 C119.785191,20.7740787 118.631731,21.2355556 117.210483,21.2355556 C116.057006,21.2355556 115.07605,20.8492631 114.267586,20.0766667 C113.459123,19.3040702 113.054897,18.2670435 113.054897,16.9655556 C113.054897,15.6640676 113.466847,14.6296335 114.290759,13.8622222 C115.114671,13.094811 116.085328,12.7111111 117.202759,12.7111111 C118.32019,12.7111111 119.270249,13.0507373 120.052966,13.73 C120.835682,14.4092627 121.227035,15.3451792 121.227035,16.5377778 L121.227035,17.7355556 Z M114.785104,16.3666667 L119.496828,16.3666667 C119.496828,15.6718484 119.280554,15.1377796 118.848,14.7644444 C118.415446,14.3911092 117.882486,14.2044444 117.249104,14.2044444 C116.615721,14.2044444 116.046715,14.3988869 115.542069,14.7877778 C115.037423,15.1766686 114.785104,15.7029596 114.785104,16.3666667 Z M126.857931,14.4688889 C126.003122,14.4688889 125.359451,14.7488861 124.926897,15.3088889 C124.494343,15.8688917 124.278069,16.620736 124.278069,17.5644444 L124.278069,21.1111111 L122.547862,21.1111111 L122.547862,12.8355556 L124.278069,12.8355556 L124.278069,14.5 C124.55614,13.9814789 124.934619,13.556298 125.413517,13.2244444 C125.892416,12.8925909 126.39963,12.7214815 126.935173,12.7111111 L126.950621,14.4688889 L126.857931,14.4688889 Z" id="CSS-Peeper" fill="#454953"></path>
                <path d="M13.7198806,-2.10942375e-15 L2.22044605e-16,13.5025974 L0,9.43857907 L9.59046425,-1.33226763e-15 L13.7198806,-1.77635684e-15 Z M16.7557487,0.00701645534 C23.3842053,0.22858562 28.6896552,5.66981694 28.6896552,12.3529412 C28.6896552,19.1752822 23.1580011,24.7058824 16.3353289,24.7058824 L14.3448276,24.7058824 L14.3448276,29.1207046 C14.3448276,29.606326 13.946193,30 13.4690881,30 L0.875739509,30 C0.392081933,30 0,29.6119296 0,29.1207046 L0,16.4974026 L16.7557487,0.00701645534 Z M6.54746679,-4.4408921e-16 L2.22044605e-16,6.44377388 L0,0.879295433 C0,0.393673975 0.394647882,-1.77635684e-15 0.874289451,-1.77635684e-15 L6.54746679,-1.77635684e-15 Z" id="mark" fill="url(#linearGradient-1)"></path>
            </g>
        </g>
    </g>
</svg>